<svg width="641" height="480" viewBox="0 0 641 480" fill="none" xmlns="http://www.w3.org/2000/svg">
<g clip-path="url(#clip0)">
<path d="M126.222 296.897C140.914 287.671 146.417 269.991 138.515 257.409C130.613 244.827 112.298 242.106 97.6064 251.333C82.9151 260.559 77.4112 278.239 85.3133 290.821C93.2153 303.404 111.531 306.124 126.222 296.897Z" fill="#FF6584"/>
<path d="M295.02 278.311C328.781 332.067 303.255 374.271 257.226 403.178C211.197 432.085 162.095 436.75 128.335 382.993C94.5748 329.237 134.969 208.509 134.969 208.509C134.969 208.509 261.26 224.555 295.02 278.311Z" fill="#F2F2F2"/>
<path d="M249.025 396.862L221.625 351.337L222.193 273.37L217.326 344.195L205.006 323.725L204.199 268.082L201.745 318.308L179.586 281.492L185.669 232.969L176.102 275.703L134.636 208.719L187.39 298.737L185.325 294.953L136.727 276.751L189.29 302.216L212.325 344.408L211.574 343.377L157.753 325.904L213.873 347.245L216.754 352.522L216.747 352.633L217.034 353.034L275.476 460.081L283.895 454.794L251.464 400.912L256.599 341.239L249.025 396.862Z" fill="#3F3D56"/>
<path d="M556.826 144.591C584.461 188.593 563.566 223.139 525.89 246.801C488.213 270.463 448.021 274.281 420.386 230.279C392.752 186.277 425.817 87.4555 425.817 87.4555C425.817 87.4555 529.192 100.589 556.826 144.591Z" fill="#F2F2F2"/>
<path d="M519.177 241.631L496.748 204.366L497.213 140.547L493.23 198.52L483.145 181.765L482.484 136.218L480.476 177.331L462.338 147.195L467.316 107.477L459.485 142.457L425.544 87.6268L468.726 161.311L467.035 158.214L427.255 143.315L470.281 164.159L489.136 198.695L488.521 197.851L444.466 183.548L490.403 201.017L492.761 205.336L492.755 205.428L492.99 205.756L540.828 293.379L547.719 289.051L521.173 244.946L525.377 196.101L519.177 241.631Z" fill="#3F3D56"/>
<path d="M389.433 400.389C516.741 320.436 617.139 251.154 613.677 245.643C610.216 240.131 504.206 300.477 376.898 380.43C249.59 460.383 149.192 529.665 152.654 535.177C156.115 540.688 262.125 480.342 389.433 400.389Z" fill="#3F3D56"/>
<path d="M535.019 320.416C556.824 306.722 574.02 294.856 573.427 293.912C572.834 292.968 554.677 303.304 532.873 316.998C511.068 330.692 493.872 342.558 494.465 343.502C495.058 344.446 513.215 334.11 535.019 320.416Z" fill="#3F3D56"/>
<path d="M402.508 426.628C424.313 412.934 441.508 401.067 440.916 400.123C440.323 399.179 422.166 409.515 400.361 423.209C378.556 436.903 361.36 448.77 361.953 449.714C362.546 450.658 380.703 440.322 402.508 426.628Z" fill="#3F3D56"/>
<path d="M286.816 483.07C336.632 451.784 375.918 424.674 374.563 422.517C373.209 420.36 331.727 443.974 281.911 475.26C232.094 506.546 192.808 533.656 194.163 535.813C195.517 537.97 236.999 514.356 286.816 483.07Z" fill="#3F3D56"/>
<path d="M185.135 497.301C203.269 485.912 210.063 464.089 200.309 448.557C190.555 433.026 167.947 429.668 149.812 441.057C131.677 452.446 124.884 474.269 134.638 489.801C144.392 505.332 167 508.69 185.135 497.301Z" fill="#2F2E41"/>
<path d="M169.973 471.096C176.171 467.204 178.493 459.745 175.159 454.437C171.825 449.129 164.098 447.981 157.901 451.873C151.703 455.766 149.381 463.225 152.714 468.533C156.048 473.841 163.775 474.989 169.973 471.096Z" fill="white"/>
<path d="M165.949 464.689C168.015 463.391 168.789 460.905 167.677 459.136C166.566 457.366 163.991 456.984 161.925 458.281C159.859 459.579 159.085 462.065 160.196 463.834C161.307 465.604 163.883 465.986 165.949 464.689Z" fill="#3F3D56"/>
<path d="M119.358 462.483C110.444 453.865 112.661 438.264 124.31 427.638C135.958 417.012 152.628 415.385 161.542 424.003C170.456 432.621 164.02 441.771 152.371 452.397C140.722 463.023 128.273 471.101 119.358 462.483Z" fill="#6C63FF"/>
<path d="M227.414 453.411C239.727 473.016 230.418 488.408 213.631 498.951C213.242 499.196 212.851 499.436 212.459 499.672C211.672 500.146 210.882 500.598 210.093 501.032C194.365 509.628 178.074 509.823 166.623 491.59C154.772 472.72 167.974 431.227 168.982 428.137L168.984 428.132C169.022 428.012 169.042 427.953 169.042 427.953C169.042 427.953 215.102 433.805 227.414 453.411Z" fill="#6C63FF"/>
<path d="M210.639 496.648L213.401 476.362L211.529 498.126L212.459 499.672C211.672 500.146 210.882 500.598 210.092 501.032L198.972 480.664L198.867 480.518L198.869 480.476L197.819 478.553L177.351 470.768L196.982 477.141L197.255 477.519L188.853 462.129L169.682 452.842L187.336 459.455L168.982 428.137L168.92 428.03L168.984 428.132L184.043 452.46L187.533 436.874L185.315 454.571L193.396 467.999L194.29 449.68L194.585 469.975L199.077 477.44L200.854 451.609L200.646 480.044L210.639 496.648Z" fill="#3F3D56"/>
<path d="M440.73 336.357C458.865 324.968 465.658 303.144 455.904 287.613C446.15 272.082 423.542 268.724 405.407 280.113C387.273 291.502 380.479 313.325 390.233 328.856C399.987 344.388 422.595 347.746 440.73 336.357Z" fill="#2F2E41"/>
<path d="M439.909 328.826L431.949 337.324L446.389 348.658L454.348 340.16L439.909 328.826Z" fill="#2F2E41"/>
<path d="M455.827 311.832L447.868 320.33L462.308 331.664L470.267 323.166L455.827 311.832Z" fill="#2F2E41"/>
<path d="M455.708 343.685C459.371 339.774 461.213 335.718 459.822 334.627C458.431 333.535 454.334 335.82 450.671 339.731C447.008 343.643 445.166 347.698 446.557 348.79C447.948 349.882 452.045 347.596 455.708 343.685Z" fill="#2F2E41"/>
<path d="M471.29 326.425C474.953 322.514 476.795 318.459 475.404 317.367C474.013 316.275 469.916 318.561 466.253 322.472C462.59 326.383 460.748 330.439 462.139 331.53C463.53 332.622 467.627 330.337 471.29 326.425Z" fill="#2F2E41"/>
<path d="M423.052 311.866C429.25 307.974 431.572 300.515 428.238 295.207C424.905 289.899 417.178 288.751 410.98 292.644C404.782 296.536 402.46 303.995 405.794 309.303C409.127 314.611 416.854 315.759 423.052 311.866Z" fill="white"/>
<path d="M419.028 305.459C421.094 304.161 421.868 301.675 420.757 299.906C419.646 298.136 417.07 297.754 415.004 299.051C412.938 300.349 412.164 302.835 413.275 304.604C414.386 306.374 416.962 306.756 419.028 305.459Z" fill="#3F3D56"/>
<path d="M372.985 316.005C361.276 310.733 358.345 295.904 366.438 282.883C374.531 269.862 390.583 263.58 402.291 268.851C413.999 274.123 410.607 284.299 402.514 297.32C394.422 310.341 384.693 321.276 372.985 316.005Z" fill="#6C63FF"/>
<path d="M372.297 357.415C383.6 375.412 375.054 389.541 359.644 399.219C359.287 399.443 358.928 399.664 358.568 399.88C357.846 400.316 357.121 400.731 356.396 401.129C341.959 409.02 327.005 409.199 316.493 392.461C305.615 375.14 317.733 337.052 318.659 334.215L318.66 334.21C318.696 334.1 318.714 334.046 318.714 334.046C318.714 334.046 360.994 339.418 372.297 357.415Z" fill="#6C63FF"/>
<path d="M356.898 397.104L359.433 378.483L357.715 398.461L358.568 399.88C357.846 400.316 357.12 400.731 356.396 401.129L346.188 382.432L346.092 382.298L346.094 382.26L345.13 380.494L326.341 373.348L344.361 379.198L344.612 379.545L336.899 365.418L319.301 356.893L335.506 362.963L318.658 334.215L318.601 334.117L318.66 334.21L332.483 356.542L335.687 342.235L333.651 358.48L341.07 370.806L341.89 353.99L342.161 372.62L346.285 379.472L347.916 355.761L347.725 381.863L356.898 397.104Z" fill="#3F3D56"/>
<path d="M486.74 296.008C499.053 315.614 489.744 331.005 472.956 341.549C472.567 341.793 472.177 342.033 471.784 342.269C470.998 342.743 470.207 343.195 469.418 343.629C453.691 352.226 437.4 352.42 425.948 334.187C414.098 315.317 427.299 273.825 428.308 270.734L428.309 270.729C428.348 270.609 428.368 270.551 428.368 270.551C428.368 270.551 474.427 276.402 486.74 296.008Z" fill="#6C63FF"/>
<path d="M469.965 339.245L472.727 318.959L470.855 340.723L471.784 342.269C470.998 342.743 470.207 343.195 469.418 343.629L458.298 323.261L458.193 323.115L458.195 323.074L457.145 321.15L436.676 313.366L456.307 319.739L456.58 320.116L448.178 304.727L429.008 295.439L446.661 302.052L428.308 270.734L428.246 270.627L428.309 270.729L443.368 295.057L446.859 279.471L444.64 297.169L452.722 310.596L453.615 292.277L453.911 312.572L458.403 320.037L460.18 294.206L459.972 322.641L469.965 339.245Z" fill="#3F3D56"/>
<path d="M435.727 323.76C435.563 320.791 427.095 319.857 416.812 321.675C406.53 323.492 398.327 327.372 398.49 330.341C398.654 333.309 407.122 334.243 417.405 332.426C427.687 330.608 435.89 326.728 435.727 323.76Z" fill="#2F2E41"/>
<path d="M181.39 479.9C181.027 476.972 172.44 476.541 162.209 478.938C151.978 481.334 143.978 485.651 144.34 488.579C144.702 491.507 153.29 491.938 163.521 489.541C173.751 487.144 181.752 482.828 181.39 479.9Z" fill="#2F2E41"/>
</g>
<defs>
<clipPath id="clip0">
<rect width="550" height="327" fill="white" transform="translate(0.525391 292.943) rotate(-32.1298)"/>
</clipPath>
</defs>
</svg>
